<svg width="74" height="40" viewBox="0 0 74 40" fill="none" xmlns="http://www.w3.org/2000/svg">
<path d="M0.74561 16V15.5806C2.33003 15.3709 2.79604 15.2078 2.79604 14.0894V2.53241C2.79604 1.4606 2.35333 1.25089 0.74561 1.04119V0.668385C2.05043 0.668385 2.79604 0.691686 3.61155 0.691686C4.54356 0.691686 5.17267 0.668385 6.47749 0.668385V1.04119C4.75327 1.25089 4.26396 1.4839 4.26396 2.53241V15.301H8.10851C10.4152 15.301 11.3007 14.0661 11.9298 11.8758H12.3259C11.8832 13.9496 11.8366 15.2311 11.8366 16H0.74561ZM22.3974 16.233C18.3898 16.233 16.6889 14.1826 16.6889 10.3613V2.53241C16.6889 1.4373 16.2462 1.25089 14.7549 1.04119V0.668385C15.9898 0.668385 16.6889 0.691686 17.551 0.691686C18.4597 0.691686 19.0189 0.668385 20.3703 0.668385V1.04119C18.5995 1.25089 18.25 1.5072 18.25 2.53241V10.5244C18.25 13.7399 19.9509 15.2544 22.4906 15.2544C25.0537 15.2544 27.0109 13.8564 27.0109 10.5244V2.55571C27.0109 1.4839 26.6614 1.25089 24.9139 1.04119V0.668385C26.2886 0.668385 26.8711 0.691686 27.4769 0.691686C28.0361 0.691686 28.572 0.668385 29.7836 0.668385V1.04119C28.339 1.25089 27.8963 1.4839 27.8963 2.55571V10.5943C27.8963 14.2758 25.5896 16.233 22.3974 16.233ZM32.9625 16V15.5806C34.3605 15.3942 34.9896 15.1845 35.0362 13.0176L35.1993 2.76541C34.2673 1.5305 33.6615 1.13439 32.8693 1.04119V0.668385H35.8284C36.0847 1.15769 36.341 1.5538 37.0401 2.48581L45.7544 13.8797L45.7078 4.04693C45.7078 1.7402 45.0554 1.13439 43.3777 1.04119V0.668385H48.597V1.04119C47.1058 1.13439 46.5699 1.7169 46.5699 4.07023L46.4767 14.835L47.2456 15.8369L47.1757 16H45.4981L35.8983 3.44112L35.9682 12.9943C35.9682 15.2311 36.4575 15.3709 38.0187 15.5806V16C36.8071 15.9767 36.2944 15.9534 35.5022 15.9534C34.71 15.9534 34.1042 15.9767 32.9625 16ZM51.152 16V15.6039C52.2006 15.4641 52.5967 14.7884 53.6918 12.202L57.9557 1.9965L57.4198 0.854788L57.5363 0.668385H58.9809L64.2235 12.7846C65.1322 14.9515 65.6215 15.4175 66.6701 15.6039V16C65.4584 15.9767 64.9225 15.9534 64.2002 15.9534C63.408 15.9534 62.8255 15.9767 61.5906 16V15.6039C63.2915 15.4408 63.5944 15.0214 62.7556 13.0875L61.6372 10.4545H55.2995L54.5073 12.4584C54.2044 13.2506 54.0879 13.8797 54.0879 14.369C54.0879 14.9515 54.4607 15.4641 55.8587 15.6039V16C54.8568 15.9767 54.1112 15.9534 53.4355 15.9534C52.7132 15.9534 52.2938 15.9767 51.152 16ZM55.6024 9.68561H61.311L58.3751 2.78871L55.6024 9.68561ZM0.74561 39V38.5806C2.33003 38.3709 2.79604 38.2078 2.79604 37.0894V25.5324C2.79604 24.4606 2.35333 24.2509 0.74561 24.0412V23.6684C2.05043 23.6684 2.74944 23.6917 3.56495 23.6917C4.49696 23.6917 5.05617 23.6684 6.36099 23.6684V24.0412C4.66007 24.2509 4.26396 24.4839 4.26396 25.5324V30.6585H12.5356V25.5324C12.5356 24.4839 12.1628 24.2509 10.4385 24.0412V23.6684C11.7667 23.6684 12.3026 23.6917 13.2346 23.6917C14.1433 23.6917 14.7258 23.6684 16.0539 23.6684V24.0412C14.3996 24.2509 14.0035 24.4373 14.0035 25.5324V37.0894C14.0035 38.1845 14.3996 38.3709 16.0539 38.5806V39C14.6792 38.9767 14.1433 38.9534 13.2346 38.9534C12.3725 38.9534 11.7667 38.9767 10.4385 39V38.5806C12.1628 38.3709 12.5356 38.1845 12.5356 37.0894V31.474H4.26396V37.0894C4.26396 38.1845 4.66007 38.3709 6.36099 38.5806V39C5.07947 38.9767 4.49696 38.9534 3.56495 38.9534C2.74944 38.9534 2.05043 38.9767 0.74561 39ZM26.789 39.233C22.7813 39.233 21.0804 37.1826 21.0804 33.3613V25.5324C21.0804 24.4373 20.6377 24.2509 19.1465 24.0412V23.6684C20.3814 23.6684 21.0804 23.6917 21.9425 23.6917C22.8512 23.6917 23.4105 23.6684 24.7619 23.6684V24.0412C22.991 24.2509 22.6415 24.5072 22.6415 25.5324V33.5244C22.6415 36.7399 24.3425 38.2544 26.8822 38.2544C29.4452 38.2544 31.4025 36.8564 31.4025 33.5244V25.5557C31.4025 24.4839 31.053 24.2509 29.3054 24.0412V23.6684C30.6802 23.6684 31.2627 23.6917 31.8685 23.6917C32.4277 23.6917 32.9636 23.6684 34.1752 23.6684V24.0412C32.7306 24.2509 32.2879 24.4839 32.2879 25.5557V33.5943C32.2879 37.2758 29.9811 39.233 26.789 39.233ZM35.954 39V38.6039C37.0026 38.4641 37.3987 37.7884 38.4938 35.202L42.7577 24.9965L42.2218 23.8548L42.3383 23.6684H43.783L49.0255 35.7846C49.9342 37.9515 50.4235 38.4175 51.4721 38.6039V39C50.2604 38.9767 49.7245 38.9534 49.0022 38.9534C48.21 38.9534 47.6275 38.9767 46.3926 39V38.6039C48.0935 38.4408 48.3964 38.0214 47.5576 36.0875L46.4392 33.4545H40.1015L39.3093 35.4584C39.0064 36.2506 38.8899 36.8797 38.8899 37.369C38.8899 37.9515 39.2627 38.4641 40.6607 38.6039V39C39.6588 38.9767 38.9132 38.9534 38.2375 38.9534C37.5152 38.9534 37.0958 38.9767 35.954 39ZM40.4044 32.6856H46.113L43.1771 25.7887L40.4044 32.6856ZM54.0988 39V38.5806C55.6366 38.4175 56.1492 38.2544 56.1492 37.0894V25.579C56.1492 24.4373 55.7531 24.2509 54.0988 24.0412V23.6684H60.0404C63.1393 23.6684 65.2364 25.1363 65.2364 27.8624C65.2364 30.4954 63.2092 32.0565 60.7627 32.0565C59.5045 32.0565 58.7822 31.7303 58.4327 31.4973V31.1944C58.7356 31.2643 59.2249 31.3808 59.8074 31.3808C62.2772 31.3808 63.6053 29.9828 63.6053 27.8624C63.6053 25.7421 62.2073 24.3674 59.4812 24.3674H57.5939V37.0894C57.5939 38.1845 58.0366 38.3709 59.8307 38.5806V39C58.3162 38.9767 57.757 38.9534 56.9181 38.9534C56.1026 38.9534 55.5201 38.9767 54.0988 39ZM68.2501 39V38.5806C69.8345 38.3709 70.3005 38.2078 70.3005 37.0894V25.5324C70.3005 24.4606 69.8578 24.2509 68.2501 24.0412V23.6684C69.5549 23.6684 70.1607 23.6917 71.0695 23.6917C72.0015 23.6917 72.5141 23.6684 73.8422 23.6684V24.0412C72.2112 24.2509 71.7685 24.4606 71.7685 25.5324V37.0894C71.7685 38.1845 72.2112 38.3709 73.8422 38.5806V39C72.5374 38.9767 72.0015 38.9534 71.0695 38.9534C70.2306 38.9534 69.5549 38.9767 68.2501 39Z" fill="white"/>
</svg>
