<svg width="88" height="88" viewBox="0 0 88 88" fill="none" xmlns="http://www.w3.org/2000/svg">
<mask id="mask0_1_49" style="mask-type:alpha" maskUnits="userSpaceOnUse" x="0" y="0" width="88" height="88">
<circle cx="43.8535" cy="43.8535" r="43.3535" fill="#D9D9D9" stroke="#CCCCCC"/>
</mask>
<g mask="url(#mask0_1_49)">
<path d="M68.1054 83.259C64.7507 80.1454 55.7661 74.096 46.6648 74.8077C35.2882 75.6973 26.9745 87.2619 14.2852 87.7067" stroke="#CCCCCC"/>
<path d="M69.7674 79.2342C64.4479 76.6275 57.972 71.7617 45.4828 71.7617C30.7385 71.7617 21.892 82.3622 10.9639 83.0573" stroke="#CCCCCC"/>
<path d="M71.7599 77.0759C65.0984 73.8644 55.251 67.4414 41.87 67.4414C31.9647 67.4414 18.0624 76.2157 3.98633 74.6673" stroke="#CCCCCC"/>
<path d="M73.4212 75.7458C64.2292 70.8947 53.6497 61.3706 32.3172 62.9674C18.7149 63.9855 10.6379 68.2922 -1.3291 67.9372" stroke="#CCCCCC"/>
<path d="M0.99707 57.8076C6.36802 55.4266 18.4388 52.8243 25.7477 52.8242C33.9295 52.8241 42.6911 55.3158 50.9967 59.8008C59.3023 64.2858 81.3952 74.9171 95.0164 74.0865" stroke="#CCCCCC"/>
<path d="M-0.332031 56.1458C5.59262 52.7128 21.0632 46.6109 35.5481 49.6674C53.6543 53.488 73.9199 67.4418 88.5378 67.9401" stroke="#CCCCCC"/>
<path d="M97.8404 53.4362C83.1279 52.7142 42.0268 47.7884 24.7511 17.3508C23.9316 15.3838 20.4855 10.9565 16.9439 17.3514C12.5168 25.345 5.91167 37.5845 -1.82669 40.313" stroke="#CCCCCC"/>
<path d="M-6.47796 47.2907C0.332625 34.8323 46.0654 36.2476 53.4884 25.1979C58.1751 18.2208 60.299 8.5866 67.608 19.5501C78.1058 35.2968 88.7041 40.6462 95.5683 32.5143C110.156 15.2321 106.002 31.9834 104.429 30.9881" stroke="#CCCCCC"/>
<path d="M95.6804 48.9517C82.5908 46.1243 51.1625 38.4867 43.823 19.4536C41.1958 9.25088 40.1222 1.42445 35.7141 5.92835C30.204 11.5582 21.0962 38.8182 -1.82717 45.8473" stroke="#CCCCCC"/>
<path d="M-3.48913 38.3205C4.98257 27.856 20.7632 30.3477 33.0555 27.856C45.0686 25.421 46.6767 5.43038 54.4133 20.8117C56.9511 25.8572 70.7879 37.8235 85.307 40.9763C99.826 44.1291 100.754 46.1551 108.414 45.7508" stroke="#CCCCCC"/>
<path d="M86.0455 61.4129C73.7532 58.2568 42.8175 45.6634 30.0659 46.1303C14.1264 46.714 2.65512 49.5545 -1.20478 54.7681" stroke="#CCCCCC"/>
<path d="M89.3926 57.8739C82.9249 58.2458 52.9785 46.7236 40.8246 43.6954C25.6322 39.9101 13.4497 39.2794 -2.52382 50.8466" stroke="#CCCCCC"/>
</g>
</svg>
